<?xml version="1.0" encoding="UTF-8"?>
<!DOCTYPE svg PUBLIC "-//W3C//DTD SVG 1.1//EN" "http://www.w3.org/Graphics/SVG/1.1/DTD/svg11.dtd">
<!-- Creator: CorelDRAW X7 -->
<svg xmlns="http://www.w3.org/2000/svg" xml:space="preserve" width="512px" height="512px" version="1.1" style="shape-rendering:geometricPrecision; text-rendering:geometricPrecision; image-rendering:optimizeQuality; fill-rule:evenodd; clip-rule:evenodd"
viewBox="0 0 512 512"
 xmlns:xlink="http://www.w3.org/1999/xlink">
 <defs>
  <style type="text/css">
   <![CDATA[
    .fil0 {fill:white}
   ]]>
  </style>
 </defs>
 <g id="Слой_x0020_1">
  <metadata id="CorelCorpID_0Corel-Layer"/>
  <path class="fil0" d="M256 0c141,0 256,115 256,256 0,141 -115,256 -256,256 -141,0 -256,-115 -256,-256 0,-141 115,-256 256,-256zm2 302l0 0c-1,0 -1,0 -2,0 -1,0 -1,0 -2,0l0 0c-45,1 -84,10 -94,12l0 0 17 89c0,0 30,-13 79,-13 49,0 79,13 79,13l17 -89 0 0c-10,-2 -49,-11 -94,-12zm101 -161c-13,0 -25,3 -36,8 -13,-22 -37,-37 -64,-39l0 -1c-1,0 -2,0 -3,0 -1,0 -2,0 -3,0l0 1c-27,2 -51,17 -64,39 -11,-5 -23,-8 -36,-8 -46,0 -82,37 -82,82 0,45 36,82 82,82 1,0 3,0 5,0 -2,-1 -2,-4 0,-5 2,-2 52,-11 98,-13 45,2 96,11 98,13 2,1 2,4 0,5 2,0 4,0 5,0 46,0 82,-37 82,-82 0,-45 -36,-82 -82,-82z"/>
 </g>
</svg>
