<?xml version="1.0" encoding="UTF-8"?>
<!DOCTYPE svg PUBLIC "-//W3C//DTD SVG 1.1//EN" "http://www.w3.org/Graphics/SVG/1.1/DTD/svg11.dtd">
<!-- Creator: CorelDRAW X7 -->
<svg xmlns="http://www.w3.org/2000/svg" xml:space="preserve" width="512px" height="512px" version="1.1" style="shape-rendering:geometricPrecision; text-rendering:geometricPrecision; image-rendering:optimizeQuality; fill-rule:evenodd; clip-rule:evenodd"
viewBox="0 0 512 512"
 xmlns:xlink="http://www.w3.org/1999/xlink">
 <defs>
  <style type="text/css">
   <![CDATA[
    .fil0 {fill:black}
   ]]>
  </style>
 </defs>
 <g id="Слой_x0020_1">
  <metadata id="CorelCorpID_0Corel-Layer"/>
  <path class="fil0" d="M468 239l43 4c0,0 2,1 0,2l-39 1c0,0 -2,0 -2,1 0,1 1,2 2,2 1,0 39,1 39,1 0,0 2,1 0,1l-38 2c0,0 -2,0 -2,2 0,0 0,1 3,1 2,0 37,0 37,0 0,-1 2,0 1,1l-39 3c0,0 -2,0 -2,2 0,2 2,1 3,1 1,0 38,-1 38,-1 0,0 1,1 0,2l-35 5c0,0 -17,1 -25,-2 -1,0 -5,-3 -6,-4 -4,-4 -9,-5 -13,-5 -3,0 -117,8 -117,8 -7,-9 0,-18 0,-18 0,0 102,8 117,3 0,0 8,0 15,-7 0,0 8,-6 20,-5z"/>
  <path class="fil0" d="M45 273l-44 -4c0,0 -1,-1 0,-2l39 -1c0,0 2,0 2,-1 0,-1 -1,-2 -2,-2 0,0 -39,-1 -39,-1 0,1 -2,-1 0,-1l38 -2c0,0 3,0 3,-2 0,0 -1,-1 -3,-1 -3,1 -38,0 -38,0 0,1 -1,0 0,-1l38 -3c0,0 3,0 3,-2 0,-2 -2,-1 -3,-1 -1,0 -38,1 -38,1 0,0 -1,-1 0,-2l34 -5c0,0 17,-1 25,2 1,1 6,3 6,4 4,4 10,5 13,5 4,0 118,-8 118,-8 6,10 0,18 0,18 0,0 -103,-8 -118,-3 0,0 -7,0 -14,7 0,0 -9,6 -20,5z"/>
  <path class="fil0" d="M239 44l4 -43c0,0 1,-2 2,0l1 39c0,0 0,2 1,2 1,0 2,-1 2,-2 0,-1 1,-39 1,-39 -1,0 1,-2 1,0l2 38c0,0 0,2 2,2 0,0 1,0 1,-3 -1,-2 0,-38 0,-38 -1,0 0,-1 1,0l3 39c0,0 0,2 2,2 2,0 1,-2 1,-3 0,-1 -1,-38 -1,-38 0,0 1,-1 2,0l5 35c0,0 1,17 -2,25 -1,1 -3,5 -4,6 -4,4 -5,9 -5,13 0,3 8,117 8,117 -10,7 -18,0 -18,0 0,0 8,-102 3,-117 0,0 0,-8 -7,-15 0,0 -6,-8 -5,-20z"/>
  <path class="fil0" d="M342 100l36 -66c0,0 4,-3 7,4 3,9 1,33 -35,74 0,0 -48,82 -55,99 0,0 -12,0 -16,-10 0,0 56,-79 60,-95 1,-1 3,-6 3,-6z"/>
  <path class="fil0" d="M474 150c21,-34 -23,-26 -27,-25 -5,1 -30,5 -35,29 0,0 2,9 -16,19 -18,10 -92,46 -92,46 0,0 -2,11 9,16 0,0 78,-52 85,-57 7,-4 16,-10 26,-5 1,1 29,10 50,-23z"/>
  <path class="fil0" d="M99 170l-65 -36c0,0 -4,-4 4,-7 8,-3 32,-1 74,34 0,0 82,49 98,56 0,0 1,12 -10,16 0,0 -79,-56 -94,-61 -2,0 -7,-2 -7,-2z"/>
  <path class="fil0" d="M150 38c-34,-21 -27,23 -25,27 1,4 5,30 29,34 0,0 9,-1 19,17 9,18 46,92 46,92 0,0 11,2 16,-9 0,0 -52,-78 -57,-85 -4,-7 -10,-16 -5,-26 1,-1 10,-29 -23,-50z"/>
  <path class="fil0" d="M413 342l65 36c0,0 4,4 -4,7 -8,3 -32,1 -74,-34 0,0 -82,-49 -98,-56 0,0 -1,-12 10,-16 0,0 79,56 94,61 1,0 7,2 7,2z"/>
  <path class="fil0" d="M362 474c34,21 26,-23 25,-27 -1,-4 -5,-30 -29,-34 0,0 -9,1 -19,-17 -10,-18 -46,-92 -46,-92 0,0 -12,-2 -16,9 0,0 52,78 57,85 4,7 10,16 5,26 -1,1 -10,29 23,50z"/>
  <path class="fil0" d="M273 467l-4 44c1,0 0,2 -1,0l-1 -39c0,0 0,-2 -2,-2 -1,0 -1,1 -1,2 0,1 -1,39 -1,39 0,0 -1,2 -2,0l-1 -38c0,0 0,-2 -2,-2 0,0 -1,0 -1,2 0,3 0,38 0,38 0,0 -1,2 -2,1l-2 -39c0,0 0,-2 -2,-2 -2,0 -2,2 -2,3 0,0 1,37 1,37 0,0 -1,2 -1,1l-5 -35c0,0 -2,-17 2,-25 0,-1 3,-5 4,-6 4,-4 5,-10 5,-13 0,-4 -9,-117 -9,-117 10,-7 19,-1 19,-1 0,0 -8,103 -4,118 0,0 1,8 8,14 0,0 6,9 4,20z"/>
  <path class="fil0" d="M170 413l-36 65c0,0 -4,4 -7,-4 -4,-8 -1,-32 34,-74 0,0 49,-82 56,-98 0,0 12,-1 16,10 0,0 -56,79 -61,94 0,1 -2,7 -2,7z"/>
  <path class="fil0" d="M38 362c-21,34 23,27 27,25 4,-1 30,-5 34,-29 0,0 -1,-9 17,-19 18,-9 92,-46 92,-46 0,0 2,-11 -9,-16 0,0 -78,52 -85,57 -7,4 -16,10 -26,5 -1,-1 -29,-10 -50,23z"/>
 </g>
</svg>
